<svg width="16" height="16" viewBox="0 0 16 16" fill="none" xmlns="http://www.w3.org/2000/svg">
<g clip-path="url(#clip0_7_259)">
<path d="M15.5969 0.196854C15.85 0.384354 16 0.684354 16 0.999979V3.24998V11.5C16 12.8812 14.6562 14 13 14C11.3438 14 10 12.8812 10 11.5C10 10.1187 11.3438 8.99998 13 8.99998C13.35 8.99998 13.6875 9.04998 14 9.14373V4.59373L6 6.99373V13.5C6 14.8812 4.65625 16 3 16C1.34375 16 0 14.8812 0 13.5C0 12.1187 1.34375 11 3 11C3.35 11 3.6875 11.05 4 11.1437V6.24998V3.99998C4 3.55935 4.29063 3.16873 4.7125 3.0406L14.7125 0.0406036C15.0156 -0.0500214 15.3438 0.00622866 15.5969 0.196854Z" fill="#8B1538"/>
</g>
<defs>
<clipPath id="clip0_7_259">
<path d="M0 0H16V16H0V0Z" fill="white"/>
</clipPath>
</defs>
</svg>
